<svg xmlns="http://www.w3.org/2000/svg" viewBox="0 0 540 128" fill="none" color="#111827" role="img" aria-labelledby="title desc">
  <title id="title">Continuum Ventures horizontal logo</title><desc id="desc">Geometric Continuum mark with outlined custom wordmark.</desc>
  <g stroke="currentColor" stroke-width="12" stroke-linecap="round" stroke-linejoin="miter"><path d="M101 22H40L22 40V88L40 106H101"/><path d="M101 46H51L44 53V75L51 82H101"/><path d="M101 64H63"/></g>
  <g transform="translate(136 31)" stroke="currentColor" stroke-width="4.5" stroke-linecap="square" stroke-linejoin="miter">
    <path d="M18 2H6L2 6V30L6 34H18M28 2H40L44 6V30L40 34H28L24 30V6ZM52 34V2L72 34V2M82 2H106M94 2V34M114 2V28L120 34H130L136 28V2M146 34V2L158 22L170 2V34M180 2V28L186 34H196L202 28V2M212 34V2L232 34V2M242 2V28L248 34H258L264 28V2M274 34V2L286 22L298 2V34"/>
  </g>
  <g transform="translate(138 85)" stroke="currentColor" stroke-opacity=".64" stroke-width="2.5" stroke-linecap="square" stroke-linejoin="miter">
    <path d="M0 0L8 20L16 0M24 0V20H40M48 20V0H64M48 10H60M72 20V0L88 20V0M96 0H116M106 0V20M124 0V16L128 20H136L140 16V0M148 20V0H160L164 4V8L160 12H148M158 12L166 20M174 0H194M184 0V20M202 4L206 0H218L222 4M202 4V8L222 12V16L218 20H206L202 16"/>
  </g>
</svg>
